<?xml version="1.0" encoding="UTF-8"?>
<svg enable-background="new 0 0 100 100" version="1.1" viewBox="0 0 100 100" xml:space="preserve" xmlns="http://www.w3.org/2000/svg" xmlns:cc="http://web.resource.org/cc/" xmlns:dc="http://purl.org/dc/elements/1.1/" xmlns:rdf="http://www.w3.org/1999/02/22-rdf-syntax-ns#">
<path d="m76.752 5h-53.504c-9.85 0-17.835 7.985-17.835 17.835v32.697c0 8.663 6.178 15.877 14.367 17.492v21.976l19.1-19.1-10.637-2.533h48.509c9.85 0 17.835-7.985 17.835-17.835v-32.697c0-9.85-7.984-17.835-17.835-17.835zm-44.587 28.734c3.005 0 5.45 2.445 5.45 5.45 0 3.004-2.445 5.45-5.45 5.45s-5.45-2.445-5.45-5.45c1e-3 -3.005 2.445-5.45 5.45-5.45zm17.835 10.899c-3.005 0-5.45-2.445-5.45-5.45 0-3.004 2.445-5.45 5.45-5.45s5.45 2.445 5.45 5.45-2.445 5.45-5.45 5.45zm17.835 0c-3.005 0-5.45-2.445-5.45-5.45 0-3.004 2.445-5.45 5.45-5.45s5.45 2.445 5.45 5.45c-1e-3 3.005-2.445 5.45-5.45 5.45z"/>
<metadata><rdf:RDF><cc:Work><dc:format>image/svg+xml</dc:format><dc:type rdf:resource="http://purl.org/dc/dcmitype/StillImage"/><cc:license rdf:resource="http://creativecommons.org/licenses/publicdomain/"/><dc:publisher><cc:Agent rdf:about="http://openclipart.org/"><dc:title>Openclipart</dc:title></cc:Agent></dc:publisher></cc:Work><cc:License rdf:about="http://creativecommons.org/licenses/publicdomain/"><cc:permits rdf:resource="http://creativecommons.org/ns#Reproduction"/><cc:permits rdf:resource="http://creativecommons.org/ns#Distribution"/><cc:permits rdf:resource="http://creativecommons.org/ns#DerivativeWorks"/></cc:License></rdf:RDF></metadata></svg>
